<?xml version="1.0" standalone="no"?>
<!DOCTYPE svg PUBLIC "-//W3C//DTD SVG 20010904//EN"
 "http://www.w3.org/TR/2001/REC-SVG-20010904/DTD/svg10.dtd">
<svg version="1.0" xmlns="http://www.w3.org/2000/svg"
 width="512.000000pt" height="512.000000pt" viewBox="0 0 512.000000 512.000000"
 preserveAspectRatio="xMidYMid meet">
<metadata>
Created by potrace 1.11, written by Peter Selinger 2001-2013
</metadata>
<g transform="translate(0.000000,512.000000) scale(0.100000,-0.100000)"
fill="#000000" stroke="none">
<path d="M2245 5044 c-465 -63 -884 -241 -1245 -530 -385 -308 -685 -758 -825
-1240 -108 -370 -126 -821 -49 -1204 76 -374 255 -753 500 -1060 350 -438 883
-762 1434 -874 308 -62 702 -62 1010 0 374 76 753 255 1060 500 438 350 762
883 874 1434 64 316 63 703 -3 1021 -78 376 -252 742 -497 1049 -350 438 -883
762 -1434 874 -231 47 -604 60 -825 30z m-289 -514 c32 -16 89 -54 126 -84 83
-67 138 -82 276 -72 86 6 152 18 422 75 309 65 456 41 512 -87 64 -144 -86
-332 -325 -407 -172 -55 -381 -68 -693 -43 -224 17 -365 -9 -409 -75 -38 -58
-75 -221 -93 -404 l-8 -83 26 0 c14 0 77 7 140 15 207 26 467 45 766 55 386
13 487 0 562 -73 92 -89 47 -210 -121 -320 -176 -116 -315 -139 -857 -141
l-365 -1 -55 -27 c-65 -32 -92 -69 -125 -167 -33 -98 -53 -211 -67 -378 -20
-245 13 -436 92 -526 54 -61 88 -71 224 -64 154 8 294 46 635 171 398 147 750
213 996 186 153 -16 199 -32 236 -82 37 -53 63 -138 54 -184 -19 -105 -137
-150 -460 -174 -173 -13 -295 -37 -450 -91 -156 -53 -270 -102 -425 -182 -367
-189 -444 -226 -546 -260 -138 -46 -226 -61 -323 -55 -296 17 -471 328 -512
911 -11 154 -7 465 7 654 l7 82 -35 6 c-62 12 -135 61 -164 111 -48 82 -22
176 89 326 95 127 125 209 157 431 11 78 23 156 26 173 l6 31 -64 6 c-94 9
-156 34 -204 83 -68 67 -72 154 -12 266 51 95 165 173 333 228 119 39 218 80
279 118 149 90 240 104 342 52z m2226 -3013 c110 -54 168 -139 168 -248 0 -52
-6 -77 -27 -120 -53 -104 -155 -152 -321 -152 -82 0 -99 4 -149 29 -203 105
-178 417 40 504 78 30 212 24 289 -13z"/>
</g>
</svg>
